<?xml version="1.0" encoding="utf-8"?>
<!-- Generator: Adobe Illustrator 26.0.3, SVG Export Plug-In . SVG Version: 6.00 Build 0)  -->
<svg version="1.1" id="Ebene_1" xmlns="http://www.w3.org/2000/svg" xmlns:xlink="http://www.w3.org/1999/xlink" x="0px" y="0px"
	 viewBox="0 0 340.7 303.2" style="enable-background:new 0 0 340.7 303.2;" xml:space="preserve">
<style type="text/css">
	.st0{fill:#E6E6E6;}
	.st1{fill:#2F2E41;}
	.st2{fill:#D6C70C;}
	.st3{fill:#FFFFFF;}
</style>
<path id="a935b196-91fc-4d65-bd04-49275a33d175-45" class="st0" d="M155.9,300.9H15.3c0,0-2.9-41.8,14-42.3s15,18.5,36.1-7.6
	s46.8-24.7,50.1-9.3s-6.4,27.8,11.4,24S170.4,271.9,155.9,300.9z"/>
<path id="b274f1e0-b558-44b1-a0b2-dcd77bbddb14-49" class="st1" d="M175,302.5H0.2v-0.6c-0.1-1.5-2.3-36.2,8.9-48.6
	c2.3-2.6,5.5-4.2,9-4.3c7.3-0.2,12,2.5,15.7,4.7c7,4.2,11.6,6.9,28.5-13.9c18.2-22.6,37.9-27.4,49.3-24.7
	c7.3,1.7,12.4,6.7,13.8,13.5c1.4,6.5,1,12.6,0.6,17.5c-0.4,5.2-0.7,9.4,1.5,11.3c1.8,1.6,5.4,1.7,11.3,0.4
	c12-2.6,28.7-0.4,37.2,10.5c4.5,5.8,8.1,16.5-0.6,33.9L175,302.5z M1.4,301.3h172.9c6.5-13.2,6.7-24.3,0.6-32.2
	c-7.7-10-23.9-12.6-35.9-10c-6.4,1.4-10.2,1.1-12.4-0.7c-2.6-2.3-2.3-6.7-1.9-12.3c0.4-4.8,0.8-10.8-0.6-17.1
	c-1.4-6.4-6.1-10.9-12.9-12.6c-11-2.6-30.1,2.2-48,24.3c-17.5,21.7-22.8,18.5-30.1,14.2c-3.8-2.2-8-4.8-15-4.6
	c-3.1,0.1-6.1,1.5-8.1,3.9C-0.1,265.3,1.1,296.6,1.4,301.3L1.4,301.3z"/>
<polygon class="st2" points="259.5,71.1 251.4,303.2 83,303.2 74.9,71.1 "/>
<g id="e7d5632f-8461-4dcf-9cd9-df8e3f64d5e2">
	<rect id="ad932c98-7027-4b28-8e73-a76d8a4136e0" x="109.1" y="108.7" class="st3" width="13.1" height="162.1"/>
	<rect id="ae1e5d8b-7977-4a56-a24c-fbb057f76b38" x="160.7" y="108.7" class="st3" width="13.1" height="162.1"/>
	<rect id="bffa0855-fc38-45cc-9e39-6daa1d3e4103" x="212.2" y="108.7" class="st3" width="13.1" height="162.1"/>
</g>
<rect x="250.9" y="-31.4" transform="matrix(0.534 -0.8455 0.8455 0.534 75.0973 246.9626)" class="st2" width="21.3" height="173.6"/>
<path id="b31113e7-cae2-4653-b248-af5e4acb0a6c-51" class="st2" d="M293.8,10.8c-12.5-7.9-29-4.2-36.8,8.3
	c-3.4,5.4-4.8,11.8-3.9,18.2l7.1,4.5c-4.6-10.7,0.3-23.1,11-27.7s23.1,0.3,27.7,11s-0.3,23.1-11,27.7c-2.4,1-5,1.6-7.6,1.7l7.1,4.5
	c14.1-4.3,22-19.3,17.7-33.4C303.2,19.5,299.2,14.2,293.8,10.8L293.8,10.8z"/>
</svg>
