<?xml version="1.0" encoding="utf-8"?>
<!-- Generator: Adobe Illustrator 26.0.3, SVG Export Plug-In . SVG Version: 6.00 Build 0)  -->
<svg version="1.1" id="Ebene_1" xmlns="http://www.w3.org/2000/svg" xmlns:xlink="http://www.w3.org/1999/xlink" x="0px" y="0px"
	 viewBox="0 0 180.6 88.1" style="enable-background:new 0 0 180.6 88.1;" xml:space="preserve">
<style type="text/css">
	.st0{fill:#E6E6E6;}
	.st1{fill:#FFFFFF;}
	.st2{fill:#CCCCCC;}
</style>
<path id="a935b196-91fc-4d65-bd04-49275a33d175-231" class="st0" d="M156,89.5H15.4c0,0-2.9-41.8,14-42.3s15,18.5,36.1-7.6
	s46.8-24.7,50.1-9.3s-6.4,27.8,11.4,24S170.5,60.5,156,89.5z"/>
<path id="af9a6d89-7824-4af5-a475-6980c18ad0f3-232" class="st1" d="M83.4,89.5l-0.5,0c1.1-27.5,6.9-45.2,11.5-55.2
	c5-10.8,9.9-15.2,9.9-15.3l0.3,0.4c0,0-4.8,4.4-9.8,15.2C90.2,44.4,84.5,62,83.4,89.5z"/>
<path id="ae138407-70d7-43ff-b006-9d3240c337f6-233" class="st1" d="M134.3,89.5l-0.5-0.1c3.5-11.7,9.9-22.3,18.6-30.9l0.3,0.4
	C144.1,67.4,137.8,77.9,134.3,89.5z"/>
<path id="a7d931fe-d47e-4aa5-ae01-a0d26a3448cc-234" class="st1" d="M37.6,89.5l-0.5-0.1c1.5-10.3-0.1-20.9-4.7-30.2
	c-1.9-3.9-4.3-7.6-7.3-10.7l0.3-0.3c3,3.2,5.5,6.9,7.4,10.8C37.5,68.4,39.1,79.1,37.6,89.5z"/>
<path id="b274f1e0-b558-44b1-a0b2-dcd77bbddb14-235" class="st2" d="M175.1,90.1H0.3l0-0.6C0.1,88-2.1,53.3,9.2,40.9
	c2.3-2.6,5.5-4.2,9-4.3c7.3-0.2,12,2.5,15.7,4.7c7,4.2,11.6,6.9,28.5-13.9C80.6,4.8,100.3,0,111.6,2.7c7.3,1.7,12.4,6.7,13.8,13.5
	c1.4,6.5,1,12.6,0.6,17.5c-0.4,5.2-0.7,9.4,1.5,11.3c1.8,1.6,5.4,1.7,11.3,0.4c12-2.6,28.7-0.4,37.2,10.5c4.5,5.8,8.1,16.5-0.6,33.9
	L175.1,90.1z M174.3,88.8c6.5-13.2,6.7-24.3,0.6-32.2c-7.7-10-23.9-12.6-35.9-10c-6.4,1.4-10.2,1.1-12.4-0.7
	c-2.6-2.3-2.3-6.7-1.9-12.3c0.4-4.8,0.8-10.8-0.6-17.1c-1.4-6.4-6.1-10.9-12.9-12.6c-11-2.6-30.1,2.2-48,24.3
	C45.8,49.9,40.5,46.7,33.2,42.4c-3.8-2.2-8-4.8-15-4.6c-3.1,0.1-6.1,1.5-8.1,3.9C0,52.9,1.2,84.1,1.5,88.8"/>
</svg>
